PathFileType	4	(X/Y/Z)	C:\Users\Basilio\Documents\Thesis Gigler\squatting_fais\c3dfiles\044\SLS_back_pre4\markers_experimental.trc
DataRate	CameraRate	NumFrames	NumMarkers	Units	OrigDataRate	OrigDataStartFrame	OrigNumFrames
200.000000	200.000000	4	63	mm	200.000000	683	1367
Frame#	Time	FHD			LBHD			RBHD			C7			T10			LSHO			LUUPA			LMUPA			LDUPA			LLEP			LMEP			LUL			LRFIN			RSHO			RUPA1			RMUPA			RDUPA			RLEP			RMEP			RUFIN			LASI			RASI			USACR			LSACR			RSACR			LTHI1			LTHI2			LTHI3			LTHI4			LLFC			LMFC			LTIB1			LTIB2			LTIB3			LTIB4			LLMAL			LMMAL			LHEE			LMT1			LMT2			LMT5			RTHI			RTHI2			RTHI3			RTHI4			RLFC			RMFC			RTIB1			RTIB2			RTIB3			RTIB4			RLMAL			RMMAL			RHEE			RMT1			RMT2			RMT5			RRAD			RUL			CLAV			LRAD			*61			*62			
		X1	Y1	Z1	X2	Y2	Z2	X3	Y3	Z3	X4	Y4	Z4	X5	Y5	Z5	X6	Y6	Z6	X7	Y7	Z7	X8	Y8	Z8	X9	Y9	Z9	X10	Y10	Z10	X11	Y11	Z11	X12	Y12	Z12	X13	Y13	Z13	X14	Y14	Z14	X15	Y15	Z15	X16	Y16	Z16	X17	Y17	Z17	X18	Y18	Z18	X19	Y19	Z19	X20	Y20	Z20	X21	Y21	Z21	X22	Y22	Z22	X23	Y23	Z23	X24	Y24	Z24	X25	Y25	Z25	X26	Y26	Z26	X27	Y27	Z27	X28	Y28	Z28	X29	Y29	Z29	X30	Y30	Z30	X31	Y31	Z31	X32	Y32	Z32	X33	Y33	Z33	X34	Y34	Z34	X35	Y35	Z35	X36	Y36	Z36	X37	Y37	Z37	X38	Y38	Z38	X39	Y39	Z39	X40	Y40	Z40	X41	Y41	Z41	X42	Y42	Z42	X43	Y43	Z43	X44	Y44	Z44	X45	Y45	Z45	X46	Y46	Z46	X47	Y47	Z47	X48	Y48	Z48	X49	Y49	Z49	X50	Y50	Z50	X51	Y51	Z51	X52	Y52	Z52	X53	Y53	Z53	X54	Y54	Z54	X55	Y55	Z55	X56	Y56	Z56	X57	Y57	Z57	X58	Y58	Z58	X59	Y59	Z59	X60	Y60	Z60	X61	Y61	Z61	X62	Y62	Z62	X63	Y63	Z63	

684	3.415	-99.86968231201175	1599.840209960938	-1063.015869140625	-229.3397064208985	1569.079956054688	-1147.977416992188	-283.5368652343751	1557.237426757813	-991.6240844726565	-304.9251098632813	1396.503784179688	-1070.26513671875	-391.9145812988282	1118.698486328125	-1018.450256347656	-208.3407897949219	1392.904174804688	-1208.738647460938	-47.8927116394043	1358.64404296875	-1307.127563476563	-19.01535034179688	1370.56005859375	-1266.243774414063	22.06662940979004	1352.293212890625	-1309.202270507813	79.68235778808595	1350.181274414063	-1297.73095703125	67.81793212890626	1273.571655273438	-1279.041625976563	332.0608520507813	1363.486328125	-1169.742065429688	335.3450622558594	1384.01904296875	-1068.492797851563	-221.5614471435547	1406.182983398438	-915.3808593750002	-74.64862060546876	1390.589233398438	-806.7147216796877	-43.13324356079102	1397.465942382813	-846.039245605469	-5.626488208770753	1386.22412109375	-801.3887939453127	55.67098617553712	1385.214477539063	-808.873474121094	50.20444488525392	1304.09033203125	-809.9925537109377	320.0455017089844	1352.7099609375	-1030.002685546875	-302.1779479980469	883.5626220703127	-1100.151977539063	-295.8330383300782	868.9165039062502	-887.8523559570315	-442.3808593750001	980.918640136719	-983.8840332031252	-461.8064575195314	952.6837158203127	-1009.537719726563	-454.2859191894532	953.3959960937502	-953.2230224609377	-318.6904907226563	693.5085449218751	-1186.289672851563	-244.9417724609376	651.3708496093751	-1191.700073242188	-208.5205688476563	678.5520629882814	-1184.7080078125	-235.5261230468751	591.2101440429689	-1179.351318359375	-141.8385925292969	471.6982421875001	-1158.749145507813	-130.6475677490235	480.6189880371095	-1039.882934570313	-169.0019073486328	315.0895080566407	-1053.72607421875	-214.3771972656251	270.4655456542969	-1115.398071289063	-184.6515808105469	262.3080444335938	-1076.8017578125	-232.4122161865235	208.2664794921876	-1034.138427734375	-329.7794494628907	115.7835693359375	-1065.699340820313	-305.4474182128907	135.9170684814453	-982.404724121094	-397.7754211425782	103.7808227539063	-1009.920776367188	-191.5289306640625	62.30195617675783	-984.3945312500002	-190.1552429199219	58.59152603149415	-1031.287353515625	-227.8757476806641	42.08906936645509	-1077.152465820313	-354.0911254882813	620.5867919921876	-790.0145263671877	-297.4978332519532	582.0288696289064	-783.1571044921877	-266.9924011230469	592.4785766601564	-792.044372558594	-298.6738281250001	497.6031188964845	-794.3897705078127	-300.3645019531251	418.7374267578126	-810.552673339844	-302.0546875000001	407.8033752441407	-925.6363525390627	-388.7166442871095	327.0421142578126	-842.439636230469	-483.1473388671876	377.7043457031251	-814.742126464844	-474.4659423828126	333.3049011230469	-825.8052368164065	-515.7893066406251	306.7554931640626	-855.7814941406252	-683.9016113281251	324.0656433105469	-865.1677246093752	-656.5574951171876	301.2551574707032	-944.8620605468752	-723.5623168945314	365.5186462402344	-926.6075439453127	-680.1171264648439	161.2284240722657	-926.595397949219	-689.2969970703126	152.8891296386719	-889.468688964844	-730.6324462890626	186.0708618164063	-848.7432250976565	nan	nan	nan	316.2735900878907	1378.158447265625	-916.5144653320315	-174.5426025390625	1334.02392578125	-1063.317260742188	315.8009338378907	1318.24169921875	-1118.806884765625	nan	nan	nan	nan	nan	nan	
685	3.42	-99.35984039306643	1599.639770507813	-1063.547973632813	-229.0397491455079	1568.655151367188	-1148.221557617188	-283.3158874511719	1556.942626953125	-991.8103027343752	-304.8336486816407	1396.296142578125	-1070.412475585938	-391.9048156738282	1118.4638671875	-1018.445129394531	-207.9838562011719	1392.6181640625	-1208.950317382813	-47.71598815917969	1358.312622070313	-1307.286010742188	-18.9082145690918	1370.139282226563	-1266.444946289063	22.19730186462403	1352.019165039063	-1309.402954101563	79.93529510498048	1349.971435546875	-1298.011840820313	67.87181854248048	1273.291870117188	-1279.014770507813	332.1971130371094	1363.411499023438	-1169.900390625	335.5085754394532	1383.97412109375	-1068.598876953125	-221.2227783203126	1405.852661132813	-915.6109619140627	-74.31372070312501	1390.318481445313	-806.9744873046877	-42.77325057983399	1397.140991210938	-846.330017089844	-5.372383117675782	1386.060546875	-801.6582641601565	56.00932693481447	1384.999633789063	-809.1228027343752	50.70499420166017	1303.84130859375	-810.328308105469	320.1742553710938	1352.631225585938	-1030.14697265625	-302.2707519531251	883.342224121094	-1100.158569335938	-295.8399658203126	868.7783203125002	-887.8723754882815	-442.3384094238282	980.7886352539065	-983.7493896484377	-461.7684936523439	952.656677246094	-1009.500305175781	-454.2259521484376	953.252136230469	-953.1443481445315	-318.8539123535157	693.3745117187501	-1186.30712890625	-245.0825958251954	651.2896728515626	-1191.805908203125	-208.5661163330079	678.5793457031251	-1184.89453125	-235.5508270263672	591.2704467773439	-1179.454345703125	-141.7982788085938	471.5430908203126	-1159.00341796875	-130.4514923095703	480.4930725097657	-1040.1015625	-168.94482421875	314.8949890136719	-1053.857177734375	-214.2789916992188	270.4919128417969	-1115.468139648438	-184.5852966308594	262.1714782714844	-1076.908447265625	-232.4264831542969	208.2747650146485	-1034.273071289063	-329.7745056152344	115.7676849365235	-1065.734252929688	-305.4601440429688	135.9859771728516	-982.471374511719	-397.7891540527345	103.8538360595703	-1009.843933105469	-191.5184936523438	62.25455856323244	-984.2753906250002	-190.1764678955078	58.57263946533205	-1031.40380859375	-227.8790435791016	41.9162826538086	-1077.18408203125	-354.0761413574219	620.3976440429689	-789.7813720703127	-297.5572814941407	581.9291992187501	-782.816589355469	-267.0391235351563	592.3526000976564	-791.885437011719	-298.5872497558594	497.4260253906251	-793.954284667969	-300.3436889648438	418.538543701172	-810.020690917969	-302.0384521484376	407.6070556640626	-925.2022094726565	-388.6510314941407	326.9212036132813	-842.0104980468752	-483.1212768554689	377.5849304199219	-814.4849243164065	-474.5208129882814	333.2954406738282	-825.3618164062502	-515.8088378906251	306.5224914550782	-855.5406494140627	-683.9182739257814	323.9937133789063	-864.8347167968752	-656.3128051757814	301.1450500488282	-944.6185302734377	-723.5326538085939	365.4988708496094	-926.3338623046877	-682.1339111328126	159.0575408935547	-924.8341064453127	-689.4561767578126	152.9543609619141	-889.1528930664065	-730.6865844726564	186.1223907470703	-848.469177246094	nan	nan	nan	316.7468261718751	1377.9638671875	-916.709411621094	-174.383773803711	1333.572143554688	-1063.514282226563	316.0795288085938	1319.104248046875	-1118.9716796875	nan	nan	nan	nan	nan	nan	
686	3.425	-99.39438629150393	1599.103759765625	-1063.602783203125	-229.7484741210938	1567.724609375	-1148.490112304688	-283.2545166015626	1556.234985351563	-991.7136230468752	-304.7474670410157	1396.672119140625	-1070.844116210938	-391.774627685547	1118.26220703125	-1018.436279296875	-207.7737884521485	1392.253295898438	-1209.164672851563	-47.61008834838868	1358.058837890625	-1307.339233398438	-18.78240776062012	1369.755126953125	-1266.639404296875	22.3105754852295	1351.834594726563	-1309.5390625	80.0967254638672	1349.816040039063	-1298.213134765625	68.2587127685547	1273.139770507813	-1279.3056640625	332.3639221191407	1363.487060546875	-1170.20703125	335.5613098144532	1383.548217773438	-1068.638793945313	-221.0041656494141	1405.710815429688	-915.7605590820315	-73.73008728027345	1389.947387695313	-807.3348388671877	-42.60089111328126	1396.903686523438	-846.7173461914065	-4.929776191711427	1385.581420898438	-801.7261352539065	56.27263259887697	1384.917236328125	-809.339782714844	50.94354629516603	1303.8798828125	-810.6074218750002	320.4765319824219	1352.588256835938	-1030.306396484375	-302.3592224121094	883.112976074219	-1100.156982421875	-295.8209533691407	868.119079589844	-887.807800292969	-442.2875976562501	980.5903320312502	-983.644226074219	-461.7470092773439	952.5335083007815	-1009.384704589844	-454.1292114257814	953.1006469726565	-953.0434570312502	-319.0112609863282	693.3073120117189	-1186.35595703125	-245.2771911621094	651.1231689453126	-1191.91162109375	-208.7108764648438	678.5355224609376	-1185.02099609375	-235.5643920898438	591.0897216796876	-1179.650390625	-141.8501892089844	471.5443725585939	-1159.144897460938	-130.3995208740235	480.4552612304689	-1040.371337890625	-168.9442749023438	314.8737487792969	-1054.048217773438	-214.2135772705079	270.4996032714844	-1115.566650390625	-184.5869140625	262.1456909179688	-1077.0595703125	-232.4313659667969	208.2881011962891	-1034.377685546875	-329.7834167480469	115.6918029785157	-1065.756103515625	-305.4260559082032	136.030746459961	-982.538269042969	-397.7787170410157	103.8550033569336	-1010.052856445313	-191.5097961425782	62.23401641845705	-984.3476562500002	-190.1992340087891	58.59913635253908	-1031.393798828125	-227.8689117431641	41.9003028869629	-1077.218139648438	-354.0884704589844	620.2274780273439	-789.5828247070315	-297.5304260253907	581.6549072265626	-782.2652587890627	-267.1151428222657	592.0696411132814	-791.590759277344	-298.6877441406251	497.4022216796876	-793.539001464844	-300.4003906250001	418.3602600097657	-809.426696777344	-302.1268615722657	407.3560791015626	-924.6606445312502	-388.8393859863282	326.5467224121094	-841.4357910156252	-482.9999389648439	377.4725341796876	-814.1509399414065	-474.5718383789064	333.1571044921876	-824.815612792969	-515.7131958007814	306.3695678710938	-855.357360839844	-683.9620971679689	323.9657592773438	-864.5273437500002	-656.2123413085939	301.0265197753907	-944.3428344726565	-723.5307617187501	365.3598937988282	-925.9743652343752	-682.1721191406251	158.8446960449219	-924.4588012695315	-689.5363769531251	152.7642669677735	-888.6502075195315	-730.7982177734376	185.8258819580078	-848.1807250976565	nan	nan	nan	317.3119506835938	1377.718627929688	-916.9525146484377	-174.1972198486328	1333.177490234375	-1063.70361328125	316.3226318359376	1319.047119140625	-1119.177124023438	-300.3016052246094	418.3987426757814	-809.6272583007815	-301.8513488769532	407.4713745117189	-924.771667480469	
687	3.43	-99.33729553222659	1598.957397460938	-1063.751098632813	-229.5218963623047	1567.478637695313	-1148.80712890625	-283.0546264648438	1556.105834960938	-992.1669921875002	-304.5386047363282	1396.45947265625	-1071.0361328125	-391.5518188476564	1117.982421875	-1018.383483886719	-207.5975494384766	1392.016357421875	-1209.412475585938	-47.49190139770509	1357.872802734375	-1307.603271484375	-18.64719963073731	1369.544799804688	-1266.840454101563	22.53914833068848	1351.623779296875	-1309.80517578125	80.19674682617189	1349.635864257813	-1298.32080078125	68.53874969482423	1273.108032226563	-1279.555786132813	332.5177917480469	1363.486450195313	-1170.402587890625	335.7019348144532	1384.096557617188	-1069.043334960938	-220.6009674072266	1405.442749023438	-916.0515747070315	-73.63681793212892	1389.70654296875	-807.601013183594	-42.24262237548829	1396.509033203125	-846.9145507812502	-4.684591293334962	1385.31396484375	-801.8937988281252	56.62426376342775	1384.542236328125	-809.6220703125002	51.34401321411134	1303.49951171875	-810.918395996094	320.5910034179688	1352.533325195313	-1030.509643554688	-302.5207824707032	882.8286743164065	-1100.119873046875	-295.8585815429688	867.8188476562502	-887.7711181640627	-442.1836242675782	980.4675292968752	-983.5150146484377	-461.8141174316407	952.4355468750002	-1009.239379882813	-454.0995483398439	953.0310668945315	-952.9871215820315	-319.0475769042969	693.2723999023439	-1186.354858398438	-245.4125671386719	651.0239868164064	-1192.02880859375	-208.9389038085938	678.4311523437501	-1185.150024414063	-235.6876831054688	591.0420532226564	-1179.773071289063	-141.8879699707032	471.4536743164064	-1159.299072265625	-130.3712005615235	480.4419860839845	-1040.559814453125	-168.8507232666016	314.9820251464844	-1054.353637695313	-214.2496795654297	270.5666809082032	-1115.622192382813	-184.8506774902344	262.7953186035157	-1077.436645507813	-232.4328613281251	208.2721710205079	-1034.473510742188	-329.7478027343751	115.6873397827149	-1065.785888671875	-305.3709716796876	136.0324401855469	-982.6462402343752	-397.7791748046876	103.8553924560547	-1010.047546386719	-191.515625	62.24097824096681	-984.3401489257815	-190.1603546142578	58.55108642578126	-1031.420288085938	-227.8753662109376	41.92822647094727	-1077.226684570313	-354.0868835449219	620.1198120117189	-789.3803710937502	-297.6146850585938	581.3927001953126	-781.784362792969	-267.2039184570313	591.8790283203126	-791.0989990234377	-298.7688903808594	497.362518310547	-793.1514282226565	-300.4122009277344	418.2450561523439	-808.9871826171877	-301.8877868652344	407.3097534179689	-924.2911376953127	-388.8067016601564	326.4013366699219	-840.976013183594	-482.9257202148439	377.3648071289063	-813.794860839844	-474.6867980957032	333.0796203613282	-824.2856445312502	-515.7813720703126	306.2368774414063	-854.9963378906252	-684.0190429687501	323.9731140136719	-864.3188476562502	-656.3743286132814	301.5900878906251	-943.8463134765627	-723.5197143554689	365.3024291992188	-925.7170410156252	-680.5129394531251	160.8699951171875	-925.5314941406252	-689.7185668945314	152.8305969238282	-888.2153930664065	-730.9312744140626	185.7756805419922	-847.9351196289065	nan	nan	nan	317.5768127441407	1377.612182617188	-917.1524658203127	-174.0397338867188	1332.906982421875	-1063.870361328125	316.4075927734376	1319.5224609375	-1119.379028320313	nan	nan	nan	nan	nan	nan	
